<?xml version="1.0" encoding="UTF-8" standalone="no"?>
<!-- Generator: Adobe Illustrator 19.0.0, SVG Export Plug-In . SVG Version: 6.00 Build 0)  -->

<svg
   xmlns:dc="http://purl.org/dc/elements/1.1/"
   xmlns:cc="http://creativecommons.org/ns#"
   xmlns:rdf="http://www.w3.org/1999/02/22-rdf-syntax-ns#"
   xmlns:svg="http://www.w3.org/2000/svg"
   xmlns="http://www.w3.org/2000/svg"
   xmlns:sodipodi="http://sodipodi.sourceforge.net/DTD/sodipodi-0.dtd"
   xmlns:inkscape="http://www.inkscape.org/namespaces/inkscape"
   version="1.1"
   id="Layer_1"
   x="0px"
   y="0px"
   viewBox="0 0 500 500"
   style="enable-background:new 0 0 500 500;"
   xml:space="preserve"
   sodipodi:docname="Esri-01.svg"
   inkscape:version="0.92.3 (2405546, 2018-03-11)"><metadata
   id="metadata42"><rdf:RDF><cc:Work
       rdf:about=""><dc:format>image/svg+xml</dc:format><dc:type
         rdf:resource="http://purl.org/dc/dcmitype/StillImage" /></cc:Work></rdf:RDF></metadata><defs
   id="defs40" /><sodipodi:namedview
   pagecolor="#ffffff"
   bordercolor="#666666"
   borderopacity="1"
   objecttolerance="10"
   gridtolerance="10"
   guidetolerance="10"
   inkscape:pageopacity="0"
   inkscape:pageshadow="2"
   inkscape:window-width="793"
   inkscape:window-height="473"
   id="namedview38"
   showgrid="false"
   inkscape:zoom="0.472"
   inkscape:cx="250"
   inkscape:cy="250"
   inkscape:window-x="25"
   inkscape:window-y="268"
   inkscape:window-maximized="0"
   inkscape:current-layer="g975" />
<style
   type="text/css"
   id="style2">
	.st0{fill:#231F20;}
	.st1{fill:url(#XMLID_48_);}
	.st2{fill:url(#XMLID_49_);}
	.st3{fill:url(#XMLID_53_);}
	.st4{fill:url(#XMLID_54_);}
</style>
<g
   id="XMLID_1_"
   transform="translate(29.661017,-25.423729)">
	
	
		<radialGradient
   id="XMLID_48_"
   cx="-4.8162999"
   cy="-0.19310001"
   r="2.3627999"
   gradientTransform="matrix(16.5126,0,0,16.5126,193.6331,246.26)"
   gradientUnits="userSpaceOnUse">
		<stop
   offset="0"
   style="stop-color:#BFE6F9"
   id="stop5" />
		<stop
   offset="1"
   style="stop-color:#1478C7"
   id="stop7" />
	</radialGradient>
	
	
		<radialGradient
   id="XMLID_49_"
   cx="-3.9951999"
   cy="-0.1495"
   r="2.3627999"
   gradientTransform="matrix(20.2582,0,0,20.2582,192.8677,246.6434)"
   gradientUnits="userSpaceOnUse">
		<stop
   offset="0"
   style="stop-color:#A6D71C"
   id="stop11" />
		<stop
   offset="0.9607"
   style="stop-color:#23A03D"
   id="stop13" />
		<stop
   offset="1"
   style="stop-color:#23A03D"
   id="stop15" />
	</radialGradient>
	
	
		<radialGradient
   id="XMLID_53_"
   cx="-2.8796"
   cy="-0.19490001"
   r="2.3627999"
   gradientTransform="matrix(25.748,0,0,25.748,198.1741,245.5065)"
   gradientUnits="userSpaceOnUse">
		<stop
   offset="0"
   style="stop-color:#A6D71C"
   id="stop19" />
		<stop
   offset="0.9607"
   style="stop-color:#23A03D"
   id="stop21" />
		<stop
   offset="1"
   style="stop-color:#23A03D"
   id="stop23" />
	</radialGradient>
	
	
		<radialGradient
   id="XMLID_54_"
   cx="-2.0899999"
   cy="-0.57440001"
   r="2.3627999"
   gradientTransform="matrix(34.0339,0,0,34.0339,199.6218,234.0795)"
   gradientUnits="userSpaceOnUse">
		<stop
   offset="0"
   style="stop-color:#A6D71C"
   id="stop27" />
		<stop
   offset="0.9607"
   style="stop-color:#23A03D"
   id="stop29" />
		<stop
   offset="1"
   style="stop-color:#23A03D"
   id="stop31" />
	</radialGradient>
	
	<g
   id="g975"
   transform="translate(84.745763,-33.898305)"><g
     id="g4686"><path
       id="XMLID_9_"
       class="st0"
       d="m 234.05932,301.74407 c -6.8,0 -11.7,5.4 -11.7,11.4 0,6 4.9,11.4 11.7,11.4 6.7,0 12,-4.9 12,-11.4 0,-6.5 -5.2,-11.4 -12,-11.4 z m -167.699998,34.1 c -21.5,0 -38.6,14.9 -38.6,37.3 0,22.3 17.2,37.3 38.6,37.3 9.8,0 19,-3 26.7,-10.5 l -11.2,-11.2 c -4.2,4.4 -9.5,7.5 -17.2,7.5 -9.9,0 -17.9,-6.4 -19.1,-16.9 h 54.2 v -4.9 c -0.1,-24.7 -13.5,-38.6 -33.4,-38.6 z m 68.899998,0 c -14.4,0 -28.6,7.1 -28.6,22.9 0,27.1 38.3,15.5 38.3,30.2 0,5.6 -6.7,8.1 -11.8,8.1 -7.5,0 -12.3,-3.7 -16.8,-8.7 l -11.5,11.5 c 7.2,7.8 16.5,10.6 27.3,10.6 14.5,0 30.6,-5.9 30.6,-22.8 0,-27.7 -38.3,-17.3 -38.3,-30 0,-5.3 5.6,-7.6 10.4,-7.6 6,0 10.5,2.5 13.9,7.2 l 11.3,-11.3 c -5.9,-7.3 -15.6,-10.1 -24.8,-10.1 z m 74.8,0 c -9.3,0 -17.2,4.9 -21,13 h -0.3 v -11.2 h -17.8 v 71 h 17.8 v -38 c 0,-3.8 2.4,-17.9 19.1,-17.9 2.6,0 5.1,0.5 7.8,1.1 l 0.7,-17 c -2.1,-0.6 -4.1,-1 -6.3,-1 z m 15.3,1.8 v 71 h 17.8 v -71 z m -161.499998,11.5 c 11.1,0 17.9,6.5 18.1,16.9 h -36.4 c 1.3,-10.2 7.8,-16.9 18.3,-16.9 z"
       inkscape:connector-curvature="0"
       style="fill:#231f20" /><path
       id="XMLID_10_"
       class="st1"
       d="m 76.7,253.3 c 0,30.4 24.6,55 55,55 30.4,0 55,-24.6 55,-55 0,-30.4 -24.6,-55 -55,-55 -30.4,0 -55,24.6 -55,55"
       style="fill:url(#XMLID_48_)"
       inkscape:connector-curvature="0" /><path
       id="XMLID_11_"
       class="st2"
       d="m 108.5,210 c -4.2,0.2 -8.3,0.7 -12.4,1.3 -11.5,9.7 -18.9,24.1 -19.4,40.2 3.2,3.4 7.5,11.1 12.5,15.6 0.7,-0.3 1.4,-0.5 2.1,-0.8 -2.4,-2.8 -5.8,-6.5 -6.3,-8.3 -2.5,-8.4 0.4,-16.3 6.6,-16.9 5.6,-0.6 10.4,-8.9 14.3,-14.4 8.1,-11.2 20.6,-9.4 20,-15 -0.7,-3.3 -2.7,-4.3 -5.1,-4.3 -3.7,0.2 -8.6,2.4 -12.3,2.6"
       style="fill:url(#XMLID_49_)"
       inkscape:connector-curvature="0" /><path
       id="XMLID_12_"
       class="st3"
       d="m 93.7,265.7 c -0.8,0.2 -1.6,0.4 -2.4,0.7 -0.7,0.2 -1.2,0.4 -2.1,0.8 -2,0.9 -3.5,2.3 -3.8,5.2 -0.6,5.3 4.5,9.5 8.7,10.8 5.4,1.6 5.9,-0.3 8.7,3.6 2,2.7 2.4,7.7 3.4,11 0.6,1.8 1.3,3.7 2.3,5.5 3.9,1.8 8,3.2 12.3,4 1.1,-6.3 0.6,-14.9 2,-18.6 2.9,-7.6 4.5,-10.9 0.6,-18.7 -8.6,-2.4 -11.3,-3.2 -20,-5 -1.8,-0.4 -2.9,-0.5 -3.9,-0.5 -1.4,-0.1 -2.7,0.3 -5.8,1.2"
       style="fill:url(#XMLID_53_)"
       inkscape:connector-curvature="0" /><path
       id="XMLID_13_"
       class="st4"
       d="m 147.2,221.9 c -2.5,3.6 -11.5,4.6 -14.4,8.7 -2.2,3.2 0.1,9.5 -1.9,13.1 -0.9,1.7 -0.5,6.5 0.6,8.1 3.4,5 9.2,2.2 13.5,4 5.2,2.2 5.9,8.3 10.2,12.7 4.4,4.5 -5.6,11.3 2.5,27.6 0.9,1.7 1.9,3 3,3.9 5.5,-3.4 10.3,-7.8 14.3,-12.8 1.2,-8.2 -1.5,-10.8 1.9,-18.3 2.1,-4.6 5.8,-12.6 9.7,-18.1 -0.7,-15.2 -7.5,-28.8 -18,-38.3 -1,0.3 -2.2,0.3 -4,0 -1.5,-0.3 -2.8,-0.4 -4,-0.4 -8.1,0 -10.5,5.6 -13.4,9.8"
       style="fill:url(#XMLID_54_)"
       inkscape:connector-curvature="0" /><path
       id="XMLID_33_"
       class="st0"
       d="m 125.4,311.7 c -1.8,-1 -4.1,-2.7 -6.2,-4.1 -0.9,0.8 -1.6,1.9 -2.3,2.9 2.4,0.8 5.7,0.8 8.5,1.2 m -9.6,-6.6 c -3.9,-2.9 -13.6,-12.1 -17.6,-17.6 -1.5,0.9 -3.1,3.2 -5.2,3.6 -0.8,0.2 -2.7,0.4 -3.3,0.2 -0.6,-0.2 0.1,-1.4 0.7,-2.2 1,-1.4 2.6,-3.1 4.8,-4.9 -4.8,-7 -7,-12.1 -10.3,-20.5 -1.9,1.2 -3.2,2.2 -4.9,3.5 -0.5,0.4 -2.1,0.7 -2.8,0 -1.3,-1.2 -1.4,-3.3 0.5,-4.6 0.8,-0.6 4.6,-3.2 5.5,-3.9 -2.3,-6.7 -4.3,-15.6 -4.8,-20.2 -1.6,1.4 -3.8,2.9 -4.4,3.3 -0.9,0.3 -1.5,0 -1.7,-0.1 -0.9,9.5 0.1,20.1 3,29.5 4.9,16.3 18.6,31.9 37,37.7 0.5,-0.5 2.6,-3 3.5,-3.8 M 77.9,233.6 c -0.2,-3.5 -0.5,-8.4 -0.5,-8.4 -2.6,5.6 -4.1,9 -4.9,15.6 1.9,-3.1 5.4,-7.2 5.4,-7.2 m 27.7,-40.3 c 10.7,-4.4 21.2,-6.9 33.2,-5.2 1.3,0.2 1.2,1.3 -0.2,1.3 h -1.7 c -9.7,0.2 -24,3.2 -31.4,7.4 -0.2,4.9 0.8,12.8 1.8,18.9 6.7,-2.8 17.1,-5.7 25,-6.6 -4.5,-4.8 -10.6,-9.3 -11.3,-9.8 -0.7,-0.5 -1.1,-1.4 -1.1,-2.6 0.1,-2.1 1.9,-2.4 2.9,-2.2 3.3,-0.6 6.5,-1.3 12.1,-1.2 23.5,-1 44.9,12.3 53.1,27.4 20.7,32.8 0,78 -27.1,90.1 -11.6,5.2 -21.6,7.4 -39.9,4.8 C 102.6,313 87.6,304 75.9,285.1 61.5,261.8 69.6,234.7 71.6,229 c 8.7,-20.2 22.9,-31 34,-35.7 m -24.3,24.8 c -0.3,2.5 0,7 0.6,12.4 5,-4.5 14.6,-10.3 22.7,-13.9 -0.9,-6.1 -1.9,-15.9 -1.8,-18.6 -7.5,4.1 -15.6,12.3 -21.6,20.8 m 1.2,16.6 c 0.7,4.9 3,15.4 5.1,20.7 5,-3.8 16.3,-10.7 22.7,-13.6 -2.2,-8.2 -3.7,-13.3 -5,-21.5 -8.9,4.1 -18.5,10.3 -22.8,14.4 m 7.1,25.4 c 3,8.5 5.8,14.9 9.6,20.2 4.4,-3.8 13.4,-9.8 20.2,-13.1 -2.3,-4.9 -5.5,-14 -7.8,-20.8 -8.8,4.5 -15.4,8.7 -22,13.7 m 12.4,24 c 4.7,6 11.9,13.5 17,17.7 4.8,-3.9 10.2,-7.5 14.8,-9.7 -3.9,-6.1 -9.7,-14.8 -12.1,-20.3 -8.7,3.9 -13.6,7.1 -19.7,12.3 m 20,20.3 c 1.8,1.9 9.2,6.7 9.2,6.7 4.9,0.2 11,-0.4 15.4,-1.1 -2.4,-2.8 -8.5,-11.3 -10.3,-14.2 -4.7,2 -10.6,5.6 -14.3,8.6 m 29.7,4.4 c 2.5,-0.8 8.8,-3.6 10.1,-4.5 0.3,-5.1 0.3,-10.8 0.1,-14.3 -6.6,0 -15.9,1.9 -21.2,4.2 3,5 7.2,10.4 11,14.6 m 13.6,-6.4 c 5,-3.1 9.6,-6.7 13,-10.9 -2.9,-0.7 -9.4,-1.6 -12.6,-1.4 -0.1,0 -0.2,7.7 -0.4,12.3 m 14.5,-12.9 c 0.9,-0.9 2.3,-2.9 2.9,-4.1 0.5,-4.7 0.6,-14.3 0.4,-17.1 -5.7,-2.3 -14.4,-4.1 -20.8,-4.6 2.1,7.6 3.1,18.9 3.3,22.5 3,0.3 10.7,1.9 14.2,3.3 m 8.3,-21.8 c -0.3,0.9 -1.8,1.8 -2.6,1.6 0.1,1.6 -0.3,9.4 -0.7,12.5 1.1,-2.2 3.2,-7.8 3.8,-10.1 l 0.9,-3.5 c 0.9,-2.9 3.7,-13.1 1.1,-26.4 -2.9,-14.8 -8.2,-20.1 -10.1,-22.4 -4.8,-2.6 -12,-4.9 -12,-4.9 6.5,8.8 8.8,13 12.7,23.5 2.3,1.2 6.4,3.5 6.9,4.1 0.4,0.5 0.4,1.4 -0.9,1.4 -1.1,0 -3.2,-1 -4.8,-1.5 1.7,5.7 3,16.4 2.9,23.6 0.3,-0.2 3.1,1.2 2.8,2.1 M 177.1,215 c -9.1,-11.1 -29.5,-20.5 -52.3,-19.1 5.1,3.4 9.3,8.4 13.1,12.6 5.7,-0.5 17.7,0.4 22.2,1.7 -0.8,-0.9 -1.7,-1.8 -1.9,-2.3 -0.6,-1.4 0.9,-1.7 2.1,-0.9 1.6,1 3.4,2.2 4.8,3.6 2.5,0.6 9,2.8 12,4.4 m 5.8,50 c -0.4,-7.2 -1.5,-16.7 -4.1,-23.3 -7,-2.8 -16.6,-4.6 -25,-4.7 2.6,6.1 5.6,16.2 7.1,22.7 6,0.7 15.5,2.5 22,5.3 m -19.7,-51.1 c -6.3,-1.1 -15.6,-1.9 -22.5,-1.5 4.7,6.5 8.1,12.1 11.3,20.2 8.7,0.2 20.5,2.8 25.3,4.7 -2.8,-7.7 -8.3,-17.5 -14.1,-23.4 m -39.8,52.2 c 10.3,-4.8 21.7,-6.9 33.2,-6.6 -3.1,-10.8 -4.9,-15.8 -7.6,-22.4 -12.7,0.6 -23.6,3.7 -33.4,8.4 -0.1,-0.1 3.6,11.6 7.8,20.6 m 34.3,-2.1 c -13,-0.2 -24.3,2.9 -32,6.7 3.3,7.1 9.7,16.4 12.2,20.2 4.2,-1.6 8.7,-2.7 12.2,-3.3 3.5,-0.5 8.2,-1.1 11.4,-1 -0.6,-8.1 -1.5,-13.6 -3.8,-22.6 m -43.6,-23 c 9.4,-4 19.5,-7.2 33.2,-8.3 -3.5,-8.4 -7.3,-14.3 -11.9,-19.7 -10.1,0.8 -19.3,3.5 -27.3,6.8 1.2,6.2 3.4,13.7 6,21.2"
       inkscape:connector-curvature="0"
       style="fill:#231f20" /></g></g>
</g>
</svg>