<?xml version="1.0" encoding="UTF-8" standalone="no"?>
<!-- Created with Inkscape (http://www.inkscape.org/) -->

<svg
   xmlns:dc="http://purl.org/dc/elements/1.1/"
   xmlns:cc="http://creativecommons.org/ns#"
   xmlns:rdf="http://www.w3.org/1999/02/22-rdf-syntax-ns#"
   xmlns:svg="http://www.w3.org/2000/svg"
   xmlns="http://www.w3.org/2000/svg"
   xmlns:sodipodi="http://sodipodi.sourceforge.net/DTD/sodipodi-0.dtd"
   xmlns:inkscape="http://www.inkscape.org/namespaces/inkscape"
   id="svg36"
   sodipodi:docname="oldtimer-mechanic.svg"
   viewBox="0 0 425.19783 425.19725"
   version="1.1"
   inkscape:version="0.91 r13725"
   width="425.19785"
   height="425.19727">
  <defs
     id="defs11" />
  <title
     id="title55">oldtimer motorcycle mechanic</title>
  <sodipodi:namedview
     id="base"
     bordercolor="#666666"
     inkscape:pageshadow="2"
     inkscape:window-y="-8"
     fit-margin-left="0"
     pagecolor="#ffffff"
     fit-margin-top="0"
     inkscape:window-maximized="1"
     inkscape:zoom="0.35"
     inkscape:window-x="-8"
     inkscape:window-height="705"
     showgrid="false"
     borderopacity="1.0"
     inkscape:current-layer="layer1"
     inkscape:cx="-3.8863756"
     inkscape:cy="92.587218"
     fit-margin-right="0"
     fit-margin-bottom="0"
     inkscape:window-width="1366"
     inkscape:pageopacity="0.0"
     inkscape:document-units="px" />
  <g
     id="layer1"
     inkscape:label="Ebene 1"
     inkscape:groupmode="layer"
     transform="translate(786.8836,-199.75868)">
    <path
       d="m -585.84994,199.75868 c -3.63752,0 -6.57019,2.93411 -6.57019,6.57018 l 0,16.29058 c 0,3.20743 -7.02015,5.01016 -7.02015,5.01016 -7.57955,1.0228 -15.02815,2.53464 -22.2907,4.44009 -0.006,-9.6e-4 -7.14197,0.98507 -8.37022,-1.98004 -1.22816,-2.96512 -6.18013,-15.00032 -6.18013,-15.00032 -1.39174,-3.36189 -5.27829,-4.99181 -8.64018,-3.60007 l -21.41997,8.91014 c -3.36036,1.39174 -4.93325,5.24823 -3.54007,8.61022 0,0 5.01198,12.03193 6.24013,15.00032 1.22815,2.96214 -4.5601,7.32015 -4.5601,7.32015 -6.57037,3.84085 -12.90459,8.04007 -18.93063,12.63002 9.6e-4,9.6e-4 -6.19011,3.64702 -8.46018,1.38003 -2.26852,-2.27304 -11.49048,-11.49048 -11.49048,-11.49048 -2.57295,-2.57295 -6.75883,-2.57295 -9.33024,0 l -16.37986,16.37986 c -2.57141,2.57286 -2.57295,6.72725 0,9.3002 0,0 9.25171,9.25017 11.52024,11.52024 2.26853,2.27006 -1.38003,8.46017 -1.38003,8.46017 -4.59369,6.03056 -8.78706,12.3545 -12.63002,18.93064 0.002,-9.6e-4 -4.38653,5.72824 -7.35011,4.50009 -2.96511,-1.23113 -15.00031,-6.21018 -15.00031,-6.21018 -3.36036,-1.39174 -7.21695,0.21273 -8.61023,3.57013 l -8.85023,21.41996 c -1.39174,3.35738 0.17969,7.18844 3.54007,8.58018 0,0 12.03482,5.01198 15.00032,6.24013 2.96511,1.22969 2.01009,8.37022 2.01009,8.37022 -1.90535,7.26121 -3.38724,14.71135 -4.41014,22.29071 l -0.06,0 c 9.6e-4,9.6e-4 -1.80119,7.02168 -5.01016,7.02014 l -16.23009,0 c -3.63752,9.6e-4 -6.63009,2.9296 -6.63009,6.57019 l 0,23.13072 c 9.6e-4,3.63598 2.99113,6.57019 6.63009,6.57019 l 16.23009,0 c 3.20743,0 5.01016,7.02014 5.01016,7.02014 l 0.06,0 c 1.02703,7.6097 2.49355,15.09056 4.41014,22.37999 0.0349,0.28006 0.95428,7.07871 -1.95,8.28017 -2.96511,1.22662 -15.06079,6.24013 -15.06079,6.24013 -3.36036,1.39318 -4.93028,5.21675 -3.54007,8.58018 l 8.85023,21.41997 c 1.39174,3.35882 5.24977,4.95869 8.61023,3.57002 0,0 12.03385,-4.985 15.00031,-6.21008 2.96358,-1.22815 7.3501,4.50009 7.3501,4.50009 3.84316,6.57557 8.03662,12.89979 12.63003,18.93064 0.002,0 3.65009,6.19165 1.38003,8.46017 -2.2716,2.27007 -11.52024,11.52024 -11.52024,11.52024 -2.57142,2.57142 -2.57142,6.72581 0,9.3002 l 16.37986,16.37986 c 2.57141,2.57141 6.75883,2.57141 9.33024,0 0,0 9.22022,-9.22166 11.49048,-11.49048 2.26853,-2.27006 8.46018,1.38003 8.46018,1.38003 6.03065,4.5936 12.35449,8.78716 18.93063,12.63002 0.002,-9.6e-4 5.79122,4.35811 4.56009,7.32015 -1.22968,2.96512 -6.24013,15.00032 -6.24013,15.00032 -1.3902,3.35738 0.1797,7.21541 3.54008,8.61022 l 21.41996,8.91014 c 3.36036,1.39328 7.247,-0.24115 8.64018,-3.60007 0,0 4.95044,-12.03481 6.18013,-15.00032 1.22662,-2.96511 8.37023,-1.98004 8.37023,-1.98004 7.26197,1.90545 14.71134,3.41729 22.2907,4.4401 0,0 7.02322,1.79965 7.02015,5.01015 l 0,16.29058 c 9.6e-4,3.63598 2.93113,6.56711 6.57018,6.57018 l 23.19024,0 c 3.63598,0 6.56865,-2.93113 6.57019,-6.57018 0,0 -9.6e-4,-13.07643 0,-16.29058 -9.6e-4,-3.20743 6.96014,-5.01015 6.96014,-5.01015 7.59981,-1.02502 15.0704,-2.52783 22.35023,-4.4401 -0.002,-9.6e-4 7.08351,-0.98507 8.31013,1.98004 1.22815,2.96512 6.27008,15.00032 6.27008,15.00032 1.39174,3.35738 5.2468,4.98884 8.61023,3.60007 l 21.3902,-8.91014 c 3.35892,-1.39481 4.92874,-5.24679 3.54007,-8.61022 0,0 -4.98192,-12.03481 -6.21017,-15.00032 -1.22816,-2.96511 4.50009,-7.32015 4.50009,-7.32015 6.57556,-3.84315 12.89979,-8.03661 18.93064,-12.63002 0,9.6e-4 6.22169,-3.65009 8.49022,-1.38003 2.27006,2.26853 11.49048,11.49048 11.49048,11.49048 2.57439,2.5669 6.75278,2.5669 9.33024,0 l 16.3501,-16.37986 c 2.57142,-2.57132 2.57295,-6.72725 0,-9.3002 0,0 -9.21869,-9.25324 -11.49048,-11.52024 -2.27006,-2.2715 1.38003,-8.46017 1.38003,-8.46017 4.59504,-6.03238 8.8462,-12.35258 12.69051,-18.93064 -9.6e-4,0 4.32805,-5.78824 7.2902,-4.56009 2.96665,1.22969 15.03007,6.27008 15.03007,6.27008 3.36036,1.38867 7.18546,-0.2112 8.58018,-3.57002 l 8.88018,-21.41997 c 1.39021,-3.36189 -0.2412,-7.18546 -3.60007,-8.58018 0,0 -12.03481,-5.01198 -15.00031,-6.24013 -2.96512,-1.22815 -1.98005,-8.37022 -1.98005,-8.37022 1.90545,-7.26198 3.4172,-14.71135 4.4401,-22.29071 0,9.6e-4 1.83421,-7.02321 5.0401,-7.02014 l 16.26082,0 c 3.63444,-0.003 6.56711,-2.9296 6.57019,-6.57019 l 0,-23.13072 c 0,-3.63598 -2.93267,-6.63009 -6.57019,-6.63009 l -16.26082,0 c -3.20896,0 -5.0401,-6.96014 -5.0401,-6.96014 -1.0229,-7.57946 -2.53465,-15.02816 -4.4401,-22.29071 0,0 -0.98354,-7.14351 1.98005,-8.37022 2.96511,-1.22662 15.00031,-6.24013 15.00031,-6.24013 3.35892,-1.39174 4.98874,-5.24833 3.60007,-8.61023 l -8.88018,-21.3902 c -1.39318,-3.36036 -5.21982,-4.9588 -8.58018,-3.57013 0,0 -12.06169,4.98049 -15.03007,6.21018 -2.96359,1.22969 -7.2902,-4.50009 -7.2902,-4.50009 -3.84412,-6.57777 -8.09528,-12.89787 -12.69051,-18.93064 9.6e-4,-0.003 -3.64855,-6.19165 -1.38003,-8.46017 2.27151,-2.26699 11.49048,-11.52024 11.49048,-11.52024 2.57142,-2.57286 2.56988,-6.72581 0,-9.3002 l -16.33954,-16.34914 c -2.57295,-2.56834 -6.75729,-2.56834 -9.33024,0 0,0 -9.21869,9.22176 -11.49048,11.49048 -2.26853,2.2716 -8.49022,-1.38003 -8.49022,-1.38003 -6.02605,-4.59014 -12.36026,-8.78946 -18.93064,-12.63002 0.002,9.6e-4 -5.72825,-4.35504 -4.50009,-7.32015 1.22969,-2.96512 6.21017,-15.00032 6.21017,-15.00032 1.39175,-3.36035 -0.1812,-7.21541 -3.54007,-8.61022 l -21.38924,-8.91859 c -3.36036,-1.38867 -7.21849,0.23969 -8.61023,3.60008 0,0 -5.04049,12.03385 -6.27008,15.00031 -1.22662,2.96512 -8.31013,1.98004 -8.31013,1.98004 -7.2805,-1.91226 -14.75071,-3.41508 -22.35023,-4.44009 0,9.6e-4 -6.96014,-1.80273 -6.96014,-5.01015 l 0,-16.29058 c 0,-3.63598 -2.99267,-6.57019 -6.63009,-6.57019 l -23.13072,0 z m 11.57976,53.91088 c 87.63542,0 158.6721,71.0674 158.6721,158.70091 0,87.63542 -71.03764,158.6721 -158.6721,158.6721 -87.63543,0 -158.67211,-71.03764 -158.67211,-158.6721 0,-87.63543 71.03764,-158.70091 158.67211,-158.70091 z"
       inkscape:connector-curvature="0"
       style="fill:#000000"
       id="path4708-4" />
  </g>
  <metadata
     id="metadata9">
    <rdf:RDF>
      <cc:Work>
        <dc:format>image/svg+xml</dc:format>
        <dc:type
           rdf:resource="http://purl.org/dc/dcmitype/StillImage" />
        <cc:license
           rdf:resource="http://creativecommons.org/publicdomain/zero/1.0/" />
        <dc:publisher>
          <cc:Agent
             rdf:about="http://openclipart.org/">
            <dc:title>Openclipart</dc:title>
          </cc:Agent>
        </dc:publisher>
        <dc:title>oldtimer motorcycle mechanic</dc:title>
        <dc:date>2011-02-27T16:20:42</dc:date>
        <dc:description>I created this as a stencil for printing on a t-shirt.</dc:description>
        <dc:source>https://openclipart.org/detail/123583/oldtimer-motorcycle-mechanic-by-forestgreen</dc:source>
        <dc:creator>
          <cc:Agent>
            <dc:title>forestgreen</dc:title>
          </cc:Agent>
        </dc:creator>
        <dc:subject>
          <rdf:Bag>
            <rdf:li>Mechanic</rdf:li>
            <rdf:li>Motorbike</rdf:li>
            <rdf:li>Motorcycle</rdf:li>
            <rdf:li>Oldtimer</rdf:li>
            <rdf:li>Traffic</rdf:li>
          </rdf:Bag>
        </dc:subject>
      </cc:Work>
      <cc:License
         rdf:about="http://creativecommons.org/publicdomain/zero/1.0/">
        <cc:permits
           rdf:resource="http://creativecommons.org/ns#Reproduction" />
        <cc:permits
           rdf:resource="http://creativecommons.org/ns#Distribution" />
        <cc:permits
           rdf:resource="http://creativecommons.org/ns#DerivativeWorks" />
      </cc:License>
    </rdf:RDF>
  </metadata>
</svg>
