<?xml version="1.0" encoding="UTF-8" standalone="no"?>
<!-- Generator: Adobe Illustrator 19.0.0, SVG Export Plug-In . SVG Version: 6.00 Build 0)  -->

<svg
   xmlns:dc="http://purl.org/dc/elements/1.1/"
   xmlns:cc="http://creativecommons.org/ns#"
   xmlns:rdf="http://www.w3.org/1999/02/22-rdf-syntax-ns#"
   xmlns:svg="http://www.w3.org/2000/svg"
   xmlns="http://www.w3.org/2000/svg"
   xmlns:sodipodi="http://sodipodi.sourceforge.net/DTD/sodipodi-0.dtd"
   xmlns:inkscape="http://www.inkscape.org/namespaces/inkscape"
   version="1.1"
   id="Calque_1"
   x="0px"
   y="0px"
   viewBox="0 0 295 334.8"
   style="enable-background:new 0 0 295 334.8;"
   xml:space="preserve"
   sodipodi:docname="Oracle_SQL_Developer_logo.svg"><metadata
   id="metadata3539"><rdf:RDF><cc:Work
       rdf:about=""><dc:format>image/svg+xml</dc:format><dc:type
         rdf:resource="http://purl.org/dc/dcmitype/StillImage" /></cc:Work></rdf:RDF></metadata><defs
   id="defs3537" /><sodipodi:namedview
   pagecolor="#ffffff"
   bordercolor="#666666"
   borderopacity="1"
   objecttolerance="10"
   gridtolerance="10"
   guidetolerance="10"
   inkscape:pageopacity="0"
   inkscape:pageshadow="2"
   inkscape:window-width="640"
   inkscape:window-height="480"
   id="namedview3535"
   showgrid="false" />
<style
   type="text/css"
   id="style3513">
	.st0{fill:#B9C8D0;}
	.st1{fill:#8EA5AF;}
	.st2{fill:#ABB8C0;}
	.st3{fill:#81989F;}
	.st4{fill:#E5E9EC;}
	.st5{fill:#3C9443;}
	.st6{fill:#45AC4E;}
	.st7{fill:#FFFFFF;}
</style>
<g
   id="g4175"
   style="stroke:none;stroke-opacity:1"
   transform="translate(2.2762677e-6,2.2097124)"><g
     style="stroke:none;stroke-opacity:1;fill-rule:evenodd"
     id="XMLID_5_">
	<path
   style="fill:#b9c8d0;stroke:none;stroke-opacity:1;fill-rule:evenodd"
   d="M 30.7,241.4 C 12.5,232.2 1.5,220.2 1.5,207 v 68.8 c 0,20.7 27.3,38.7 67.2,47.4 v -47.4 -21.4 c -14.6,-3.2 -27.5,-7.6 -38,-13 z"
   class="st0"
   id="XMLID_14_"
   inkscape:connector-curvature="0" />
	<path
   style="fill:#b9c8d0;stroke:none;stroke-opacity:1;fill-rule:evenodd"
   d="M 39.1,168.8 C 35.8,167.4 32.6,166 29.7,164.4 12.2,155.2 1.6,143.4 1.6,130.5 v 67.7 c 0,1.5 0.2,2.9 0.4,4.4 2.6,13.6 16.8,25.7 38.4,34.4 8.4,3.4 17.9,6.3 28.3,8.6 v -17.2 -50.6 c -10.9,-2.3 -20.9,-5.4 -29.6,-9 z"
   class="st0"
   id="XMLID_10_"
   inkscape:connector-curvature="0" />
	<path
   style="fill:#8ea5af;stroke:none;stroke-opacity:1;fill-rule:evenodd"
   d="M 123.3,0 C 56,0 1.5,23.7 1.5,53 c 0,13.1 11,25.1 29.1,34.4 3,1.5 6.2,3 9.6,4.4 8.4,3.4 18,6.3 28.4,8.6 L 92,79.3 102.8,69.5 121,53 174.2,4.8 C 158.7,1.7 141.5,0 123.3,0 Z"
   class="st1"
   id="XMLID_3_"
   inkscape:connector-curvature="0" />
	<path
   style="fill:#b9c8d0;stroke:none;stroke-opacity:1;fill-rule:evenodd"
   d="M 40.3,91.8 C 36.9,90.4 33.7,89 30.7,87.4 12.5,78.1 1.5,66.1 1.5,53 v 68.7 c 0,1.5 0.2,2.9 0.4,4.4 2.5,13.3 16.2,25.2 37.1,33.9 3.8,1.6 7.7,3 11.9,4.4 5.6,1.8 11.5,3.4 17.7,4.7 v -9.5 -8.8 -50.5 0 C 58.3,98.1 48.7,95.2 40.3,91.8 Z"
   class="st0"
   id="XMLID_4_"
   inkscape:connector-curvature="0" />
	<path
   style="fill:#abb8c0;stroke:none;stroke-opacity:1;fill-rule:evenodd"
   d="m 144.1,275.9 c -1.2,-5.3 -1.9,-10.8 -2,-16.4 -6.1,0.4 -12.4,0.6 -18.9,0.6 -10,0 -19.7,-0.5 -29,-1.5 -9,-1 -17.5,-2.3 -25.6,-4.1 v 21.4 47.4 c 1.3,0.3 2.6,0.6 4,0.8 15.4,3.1 32.6,4.8 50.6,4.8 19.7,0 38.3,-2.1 54.8,-5.7 -16.8,-10.5 -29.2,-27.4 -33.9,-47.3 z"
   class="st2"
   id="XMLID_9_"
   inkscape:connector-curvature="0" />
	<path
   style="fill:#81989f;stroke:none;stroke-opacity:1;fill-rule:evenodd"
   d="M 177.7,5.6 C 176.5,5.3 175.4,5.1 174.2,4.9 L 121,53 102.8,69.5 92,79.3 68.7,100.4 c 16.4,3.6 35,5.6 54.6,5.6 7.4,0 14.6,-0.3 21.6,-0.8 23.5,-1.8 44.7,-6.6 61.5,-13.4 C 209.8,90.4 213,89 216,87.4 234.1,78.1 245,66.1 245,53 245,32.2 217.6,14.3 177.7,5.6 Z"
   class="st3"
   id="XMLID_2_"
   inkscape:connector-curvature="0" />
	<path
   style="fill:#abb8c0;stroke:none;stroke-opacity:1;fill-rule:evenodd"
   d="m 215.9,87.4 c -3,1.5 -6.2,3 -9.6,4.4 -16.8,6.8 -37.9,11.6 -61.5,13.4 -7,0.5 -14.2,0.8 -21.6,0.8 -19.6,0 -38.2,-2 -54.6,-5.6 v 0 50.5 8.8 9.5 c 16,3.5 34.1,5.5 53.2,5.6 0.5,0 0.9,0 1.4,0 27.1,0 52.1,-3.9 72.3,-10.4 4.2,-1.4 8.2,-2.8 11.9,-4.4 20.8,-8.7 34.6,-20.6 37.1,-33.9 0.3,-1.4 0.4,-2.9 0.4,-4.4 V 53 c 0.1,13.1 -10.8,25.1 -29,34.4 z"
   class="st2"
   id="XMLID_7_"
   inkscape:connector-curvature="0" />
	<g
   style="stroke:none;stroke-opacity:1;fill-rule:evenodd"
   id="XMLID_1_">
		<path
   style="fill:#81989f;stroke:none;stroke-opacity:1;fill-rule:evenodd"
   d="m 244.6,126.1 c -2.5,13.3 -16.2,25.2 -37.1,33.9 -3.8,1.6 -7.7,3 -11.9,4.4 -20.2,6.5 -45.2,10.4 -72.3,10.4 -0.5,0 -0.9,0 -1.4,0 -19.1,-0.1 -37.2,-2.1 -53.2,-5.6 -6.2,-1.4 -12.1,-2.9 -17.7,-4.7 -4.2,-1.4 -8.2,-2.8 -11.9,-4.4 C 18.2,151.3 4.5,139.4 2,126.1 1.7,124.7 1.6,123.2 1.6,121.7 v 8.8 c 0,12.9 10.6,24.7 28.1,33.9 2.9,1.5 6.1,3 9.4,4.4 8.7,3.6 18.7,6.7 29.6,9.1 15.2,3.3 32.3,5.3 50.3,5.6 1.4,0 2.8,0 4.3,0 32.7,0 62.3,-5.6 84.2,-14.7 3.3,-1.4 6.5,-2.8 9.4,-4.4 17.5,-9.2 28.1,-21 28.1,-33.9 v -8.8 c 0,1.5 -0.1,3 -0.4,4.4 z"
   class="st3"
   id="XMLID_8_"
   inkscape:connector-curvature="0" />
		<path
   style="fill:#81989f;stroke:none;stroke-opacity:1;fill-rule:evenodd"
   d="m 244.6,202.6 c -2.4,12.7 -15,24.1 -34.3,32.7 -1.3,0.6 -2.7,1.2 -4.1,1.7 -3,1.2 -6,2.3 -9.3,3.4 -12.4,4.1 -26.7,7.2 -42.2,9 -4,0.5 -8.1,0.8 -12.3,1.1 -6.3,0.4 -12.7,0.7 -19.2,0.7 -9,0 -17.8,-0.4 -26.2,-1.2 C 87,249 77.5,247.6 68.6,245.6 58.2,243.3 48.7,240.4 40.3,237 18.8,228.3 4.5,216.2 2,202.6 1.7,201.2 1.6,199.7 1.6,198.2 v 8.8 c 0,13.1 11,25.1 29.2,34.4 10.5,5.3 23.4,9.8 38,13 8.1,1.8 16.6,3.1 25.6,4.1 9.3,1 19,1.5 29,1.5 6.4,0 12.7,-0.2 18.9,-0.6 4.1,-0.3 8.1,-0.6 12,-1.1 15.7,-1.8 30.2,-4.9 42.8,-9.1 6.9,-2.3 13.3,-4.9 18.9,-7.8 0.9,-0.5 1.8,-1 2.7,-1.4 16.5,-9 26.4,-20.5 26.4,-33 v -7.3 -1.4 c 0,0.5 -0.1,0.9 -0.1,1.4 -0.1,1 -0.2,2 -0.4,2.9 z"
   class="st3"
   id="XMLID_19_"
   inkscape:connector-curvature="0" />
	</g>
	<path
   style="fill:#abb8c0;stroke:none;stroke-opacity:1;fill-rule:evenodd"
   d="m 216.9,164.4 c -2.9,1.5 -6.1,3 -9.4,4.4 -21.9,9.1 -51.5,14.7 -84.2,14.7 -1.4,0 -2.8,0 -4.3,0 -18.1,-0.3 -35.1,-2.3 -50.3,-5.6 v 50.6 17.2 c 8.9,1.9 18.4,3.4 28.4,4.4 8.4,0.8 17.2,1.2 26.2,1.2 6.5,0 13,-0.2 19.2,-0.7 4.2,-0.3 8.3,-0.7 12.3,-1.1 15.5,-1.8 29.8,-4.9 42.2,-9 3.2,-1.1 6.3,-2.2 9.3,-3.4 1.4,-0.6 2.7,-1.1 4.1,-1.7 19.3,-8.6 31.9,-20 34.3,-32.7 0.2,-1 0.3,-2 0.4,-3 0,-0.5 0.1,-0.9 0.1,-1.4 v -11.6 -56.2 c -0.2,12.9 -10.7,24.7 -28.3,33.9 z"
   class="st2"
   id="XMLID_16_"
   inkscape:connector-curvature="0" />
	<g
   style="stroke:none;stroke-opacity:1;fill-rule:evenodd"
   id="XMLID_54_">
		<circle
   style="fill:#e5e9ec;stroke:none;stroke-opacity:1;fill-rule:evenodd"
   r="76.400002"
   cy="258.29999"
   cx="218.5"
   class="st4"
   id="XMLID_85_" />
		<g
   style="stroke:none;stroke-opacity:1;fill-rule:evenodd"
   id="XMLID_78_">
			<path
   style="fill:#3c9443;stroke:none;stroke-opacity:1;fill-rule:evenodd"
   d="m 218.5,197.7 c 34.9,0 63.3,27.8 64.3,62.5 0,-0.6 0,-1.3 0,-1.9 0,-35.6 -28.8,-64.4 -64.4,-64.4 -35.6,0 -64.4,28.8 -64.4,64.4 0,0.6 0,1.3 0,1.9 1.2,-34.6 29.6,-62.5 64.5,-62.5 z"
   class="st5"
   id="XMLID_82_"
   inkscape:connector-curvature="0" />
			<path
   style="fill:#45ac4e;stroke:none;stroke-opacity:1;fill-rule:evenodd"
   d="m 218.5,322.7 c 34.9,0 63.3,-27.8 64.3,-62.5 -1,-34.7 -29.4,-62.5 -64.3,-62.5 -34.9,0 -63.3,27.8 -64.3,62.5 1,34.7 29.4,62.5 64.3,62.5 z"
   class="st6"
   id="XMLID_79_"
   inkscape:connector-curvature="0" />
		</g>
		<polygon
   style="fill:#3c9443;stroke:none;stroke-opacity:1;fill-rule:evenodd"
   points="196.9,267.1 196.9,292 251.4,261.5 196.9,231 196.9,256 "
   class="st5"
   id="XMLID_67_" />
		<polygon
   style="fill:#ffffff;stroke:none;stroke-opacity:1;fill-rule:evenodd"
   points="196.9,263.9 196.9,288.9 251.4,258.3 196.9,227.8 196.9,252.8 "
   class="st7"
   id="XMLID_58_" />
	</g>
</g></g>
</svg>