<?xml version="1.0" encoding="UTF-8" standalone="no"?>
<!-- Created with Inkscape (http://www.inkscape.org/) -->

<svg
   xmlns:dc="http://purl.org/dc/elements/1.1/"
   xmlns:cc="http://creativecommons.org/ns#"
   xmlns:rdf="http://www.w3.org/1999/02/22-rdf-syntax-ns#"
   xmlns:svg="http://www.w3.org/2000/svg"
   xmlns="http://www.w3.org/2000/svg"
   xmlns:sodipodi="http://sodipodi.sourceforge.net/DTD/sodipodi-0.dtd"
   xmlns:inkscape="http://www.inkscape.org/namespaces/inkscape"
   width="297mm"
   height="210mm"
   viewBox="0 0 297 210"
   version="1.1"
   id="svg8"
   inkscape:version="0.92.3 (2405546, 2018-03-11)"
   sodipodi:docname="competences.svg">
  <defs
     id="defs2" />
  <sodipodi:namedview
     id="base"
     pagecolor="#ffffff"
     bordercolor="#666666"
     borderopacity="1.0"
     inkscape:pageopacity="0.0"
     inkscape:pageshadow="2"
     inkscape:zoom="3.959798"
     inkscape:cx="197.20438"
     inkscape:cy="701.42264"
     inkscape:document-units="mm"
     inkscape:current-layer="text4567"
     showgrid="true"
     inkscape:snap-others="false"
     inkscape:snap-nodes="false"
     inkscape:snap-global="false"
     showguides="false"
     inkscape:window-width="3840"
     inkscape:window-height="2081"
     inkscape:window-x="-11"
     inkscape:window-y="-11"
     inkscape:window-maximized="1">
    <inkscape:grid
       type="xygrid"
       id="grid815" />
  </sodipodi:namedview>
  <metadata
     id="metadata5">
    <rdf:RDF>
      <cc:Work
         rdf:about="">
        <dc:format>image/svg+xml</dc:format>
        <dc:type
           rdf:resource="http://purl.org/dc/dcmitype/StillImage" />
        <dc:title></dc:title>
      </cc:Work>
    </rdf:RDF>
  </metadata>
  <g
     inkscape:label="Calque 1"
     inkscape:groupmode="layer"
     id="layer1"
     transform="translate(0,-87)">
    <g
       id="g4539">
      <circle
         r="21.166666"
         cy="121.05209"
         cx="34.395832"
         id="path4520"
         style="opacity:1;fill:none;fill-opacity:1;stroke:#000000;stroke-width:0.5;stroke-linecap:round;stroke-linejoin:round;stroke-miterlimit:4;stroke-dasharray:none;stroke-dashoffset:0;stroke-opacity:1" />
      <circle
         r="16.850554"
         cy="120.94707"
         cx="34.392689"
         id="path4520-3"
         style="opacity:1;fill:none;fill-opacity:1;stroke:#000000;stroke-width:0.5;stroke-linecap:round;stroke-linejoin:round;stroke-miterlimit:4;stroke-dasharray:none;stroke-dashoffset:0;stroke-opacity:1" />
      <path
         style="fill:none;stroke:#000000;stroke-width:0.26458332px;stroke-linecap:butt;stroke-linejoin:miter;stroke-opacity:1"
         d="m 13.54572,117.77217 4.219144,0.67822 m 33.226997,-0.5043 4.192663,-0.81551"
         id="path4547"
         inkscape:connector-curvature="0"
         sodipodi:nodetypes="cccc" />
      <path
         style="fill:none;stroke:#000000;stroke-width:0.26458332px;stroke-linecap:butt;stroke-linejoin:miter;stroke-opacity:1"
         d="m 50.781209,134.50013 -3.382752,-2.77024 m -21.43781,3.85297 -2.040024,3.66131"
         id="path4549"
         inkscape:connector-curvature="0"
         sodipodi:nodetypes="cccc" />
      <path
         style="opacity:1;fill:#ff3de1;fill-opacity:1;stroke:#ff3de1;stroke-width:0.16872892;stroke-linecap:round;stroke-linejoin:round;stroke-miterlimit:4;stroke-dasharray:none;stroke-dashoffset:0;stroke-opacity:1"
         d="m 59.099052,117.03263 c -3.732142,-0.60598 -6.85005,-1.11403 -6.928682,-1.12898 -0.126737,-0.0241 -0.110111,-0.20459 0.146443,-1.58969 2.85933,-15.437216 10.237862,-29.634311 21.24492,-40.877538 3.98805,-4.073618 7.993465,-7.385633 12.769462,-10.55887 18.461065,-12.265777 41.243955,-16.203207 62.733205,-10.841801 12.41182,3.096656 23.52725,8.942981 33.33822,17.534737 1.51498,1.326707 5.6034,5.436554 6.95505,6.991501 7.7758,8.945301 13.3036,19.034819 16.5254,30.162681 0.74633,2.57779 1.7129,6.66677 1.6021,6.77757 -0.0435,0.0435 -13.8998,2.76536 -13.9393,2.7382 -0.01,-0.007 -0.0824,-0.33228 -0.16173,-0.72371 -3.32468,-16.401795 -12.81286,-30.82219 -26.56187,-40.369422 -8.9607,-6.222258 -19.56692,-10.124781 -30.40179,-11.186233 -0.54018,-0.05292 -1.16295,-0.115351 -1.38393,-0.138737 -0.22098,-0.02339 -1.44836,-0.08459 -2.72751,-0.136012 -5.88409,-0.236534 -12.19,0.423665 -18.03142,1.887801 -14.910478,3.737278 -28.056099,12.69398 -36.927513,25.160376 -5.480604,7.701522 -9.322473,16.745647 -10.926625,25.722307 -0.306194,1.71343 -0.302236,1.69786 -0.428809,1.68703 -0.06045,-0.005 -3.163478,-0.50522 -6.895621,-1.11121 z"
         id="path4561"
         inkscape:connector-curvature="0"
         transform="matrix(0.26458333,0,0,0.26458333,0,87)" />
      <path
         style="opacity:1;fill:#4a3de1;fill-opacity:1;stroke:#4a3de1;stroke-width:0.16872892;stroke-linecap:round;stroke-linejoin:round;stroke-miterlimit:4;stroke-dasharray:none;stroke-dashoffset:0;stroke-opacity:1"
         d="m 186.76437,174.59278 c -2.55432,-2.09309 -5.09136,-4.17181 -5.63786,-4.61938 l -0.99364,-0.81377 0.82837,-1.06123 c 6.22049,-7.96907 10.49894,-17.3176 12.4584,-27.22194 0.96888,-4.89729 1.39259,-10.23741 1.18437,-14.92671 -0.14266,-3.2126 -0.29089,-4.70667 -0.84366,-8.50354 -0.0144,-0.0988 1.51258,-0.42545 6.94585,-1.48572 3.83035,-0.74747 6.98923,-1.33332 7.01971,-1.30189 0.0596,0.0614 0.43952,2.44186 0.65753,4.11964 0.75175,5.78528 0.80011,12.75677 0.12977,18.70536 -1.57132,13.94389 -6.74738,27.07828 -15.11244,38.34821 -0.49207,0.66295 -1.14161,1.51163 -1.44343,1.88597 l -0.54875,0.68061 z"
         id="path4563"
         inkscape:connector-curvature="0"
         transform="matrix(0.26458333,0,0,0.26458333,0,87)" />
      <g
         aria-label="Javascript"
         style="font-style:normal;font-weight:normal;font-size:4.23333311px;line-height:1.25;font-family:sans-serif;letter-spacing:0px;word-spacing:0px;fill:#000000;fill-opacity:1;stroke:none;stroke-width:0.26458332"
         id="text4567"
         transform="translate(-1.0690781,0.83521728)">
        <text
           xml:space="preserve"
           style="font-style:normal;font-weight:normal;font-size:3.17499995px;line-height:1.25;font-family:sans-serif;letter-spacing:0px;word-spacing:0px;fill:#000000;fill-opacity:1;stroke:none;stroke-width:0.07000434"
           x="35.527214"
           y="97.048981"
           id="text4637"><tspan
             sodipodi:role="line"
             x="35.527214"
             y="97.048981"
             style="font-style:normal;font-variant:normal;font-weight:normal;font-stretch:normal;font-family:Perpetua;-inkscape-font-specification:Perpetua;text-align:center;text-anchor:middle;stroke-width:0.07000434"
             id="tspan4639">Javascript</tspan></text>
        <text
           xml:space="preserve"
           style="font-style:normal;font-weight:normal;font-size:3.17499995px;line-height:1.25;font-family:sans-serif;letter-spacing:0px;word-spacing:0px;fill:#000000;fill-opacity:1;stroke:none;stroke-width:0.07000434"
           x="61.471214"
           y="126.51686"
           id="text4637-3"><tspan
             sodipodi:role="line"
             x="61.471214"
             y="126.51686"
             style="font-style:normal;font-variant:normal;font-weight:normal;font-stretch:normal;font-family:Perpetua;-inkscape-font-specification:Perpetua;text-align:center;text-anchor:middle;stroke-width:0.07000434"
             id="tspan4639-9">Python</tspan></text>
        <text
           xml:space="preserve"
           style="font-style:normal;font-weight:normal;font-size:3.17499995px;line-height:1.25;font-family:sans-serif;letter-spacing:0px;word-spacing:0px;fill:#000000;fill-opacity:1;stroke:none;stroke-width:0.07000434"
           x="43.994671"
           y="144.70546"
           id="text4637-3-0"><tspan
             sodipodi:role="line"
             x="43.994671"
             y="144.70546"
             style="font-style:normal;font-variant:normal;font-weight:normal;font-stretch:normal;font-family:Perpetua;-inkscape-font-specification:Perpetua;text-align:center;text-anchor:middle;stroke-width:0.07000434"
             id="tspan4639-9-1">C#, .NET</tspan></text>
        <text
           xml:space="preserve"
           style="font-style:normal;font-weight:normal;font-size:3.17499995px;line-height:1.25;font-family:sans-serif;letter-spacing:0px;word-spacing:0px;fill:#000000;fill-opacity:1;stroke:none;stroke-width:0.07000434"
           x="9.7655697"
           y="131.77821"
           id="text4637-3-0-4"><tspan
             sodipodi:role="line"
             x="9.7655697"
             y="131.77821"
             style="font-style:normal;font-variant:normal;font-weight:normal;font-stretch:normal;font-family:Perpetua;-inkscape-font-specification:Perpetua;text-align:center;text-anchor:middle;stroke-width:0.07000434"
             id="tspan4639-9-1-6">Fortran 77</tspan></text>
      </g>
      <path
         style="opacity:1;fill:#ff1d18;fill-opacity:1;stroke:#ff1d18;stroke-width:0.23861872;stroke-linecap:round;stroke-linejoin:round;stroke-miterlimit:4;stroke-dasharray:none;stroke-dashoffset:0;stroke-opacity:1"
         d="M 89.336617,196.4407 C 83.413422,192.76413 78.702566,189.06627 74.180127,184.54337 63.434224,173.79636 56.13724,160.48443 52.85951,145.64804 c -0.723618,-3.27539 -1.230629,-6.5975 -1.618751,-10.6066 -0.205959,-2.12744 -0.205737,-10.58076 3.31e-4,-12.62691 0.304737,-3.02586 0.566267,-5.09376 0.66427,-5.25233 0.07903,-0.12788 1.559758,0.0719 7.022681,0.94745 3.807391,0.61023 6.938213,1.12442 6.957382,1.14264 0.01917,0.0182 -0.05012,0.76559 -0.153984,1.66082 -0.776582,6.69382 -0.469046,13.75179 0.887158,20.36028 1.354812,6.60172 3.889472,13.33202 7.194993,19.10493 5.277848,9.21748 12.713769,16.98109 21.682287,22.63779 0.887466,0.55975 1.62614,1.04922 1.641498,1.08771 0.0385,0.0965 -7.013871,12.74847 -7.100071,12.73754 -0.03814,-0.005 -0.353447,-0.18513 -0.700687,-0.40066 z"
         id="path4705"
         inkscape:connector-curvature="0"
         transform="matrix(0.26458333,0,0,0.26458333,0,87)" />
      <path
         style="opacity:1;fill:#c5d918;fill-opacity:1;stroke:#c5d918;stroke-width:0.23861872;stroke-linecap:round;stroke-linejoin:round;stroke-miterlimit:4;stroke-dasharray:none;stroke-dashoffset:0;stroke-opacity:1"
         d="m 125.51271,207.57844 c -11.38675,-0.70195 -22.62573,-3.83911 -32.416923,-9.0486 l -2.049207,-1.0903 0.233152,-0.38939 c 0.128233,-0.21417 1.698705,-3.03158 3.489938,-6.26092 1.791232,-3.22933 3.298077,-5.91905 3.348544,-5.97715 0.05047,-0.0581 1.390876,0.54033 2.978686,1.32986 1.58781,0.78954 3.65401,1.74129 4.59156,2.11501 5.52973,2.20422 11.26964,3.6434 17.48827,4.38486 1.51544,0.18069 2.87837,0.22583 6.81853,0.22583 5.36015,0 6.57091,-0.0913 10.92227,-0.82348 13.84088,-2.32899 27.09057,-9.50536 36.52327,-19.78192 0.88543,-0.96464 1.68898,-1.86208 1.78567,-1.99431 0.12951,-0.17713 0.22095,-0.20579 0.3473,-0.10886 0.36,0.27617 10.78649,8.80124 10.94752,8.95108 0.13932,0.12964 -0.0316,0.39026 -0.96238,1.46738 -7.07504,8.18741 -16.55931,15.29534 -26.48715,19.85065 -8.37144,3.84117 -16.96303,6.1171 -26.32111,6.97252 -2.54842,0.23296 -8.75093,0.33105 -11.23794,0.17774 z"
         id="path4707"
         inkscape:connector-curvature="0"
         transform="matrix(0.26458333,0,0,0.26458333,0,87)" />
    </g>
  </g>
</svg>
